<?xml version="1.0" encoding="UTF-8" standalone="no"?>
<svg
   xmlns:dc="http://purl.org/dc/elements/1.1/"
   xmlns:cc="http://creativecommons.org/ns#"
   xmlns:rdf="http://www.w3.org/1999/02/22-rdf-syntax-ns#"
   xmlns:svg="http://www.w3.org/2000/svg"
   xmlns="http://www.w3.org/2000/svg"
   xmlns:sodipodi="http://sodipodi.sourceforge.net/DTD/sodipodi-0.dtd"
   xmlns:inkscape="http://www.inkscape.org/namespaces/inkscape"
   version="1.1"
   x="0px"
   y="0px"
   viewBox="0 0 300 200"
   enable-background="new 0 0 100 100"
   xml:space="preserve"
   id="svg5718"
   inkscape:version="0.91 r13725"
   sodipodi:docname="noun_116281_cc.svg"
   width="300"
   height="200"><metadata
     id="metadata5732"><rdf:RDF><cc:Work
         rdf:about=""><dc:format>image/svg+xml</dc:format><dc:type
           rdf:resource="http://purl.org/dc/dcmitype/StillImage" /><dc:title></dc:title></cc:Work></rdf:RDF></metadata><defs
     id="defs5730" /><sodipodi:namedview
     pagecolor="#ffffff"
     bordercolor="#666666"
     borderopacity="1"
     objecttolerance="10"
     gridtolerance="10"
     guidetolerance="10"
     inkscape:pageopacity="0"
     inkscape:pageshadow="2"
     inkscape:window-width="1280"
     inkscape:window-height="751"
     id="namedview5728"
     showgrid="false"
     inkscape:zoom="1.888"
     inkscape:cx="58.739407"
     inkscape:cy="62.5"
     inkscape:window-x="0"
     inkscape:window-y="1"
     inkscape:window-maximized="1"
     inkscape:current-layer="svg5718" /><path
     d="m 84.70385,116.26825 c -1.28286,0 -2.32403,1.04116 -2.32403,2.32403 0,1.28287 1.04117,2.32404 2.32403,2.32404 l 18.59228,0 c 1.28287,0 2.32404,-1.04117 2.32404,-2.32404 0,-1.28287 -1.04117,-2.32403 -2.32404,-2.32403 l -6.9721,0 0,-32.536495 6.9721,0 c 1.28287,0 2.32404,-1.041167 2.32404,-2.324035 0,-1.282867 -1.04117,-2.324035 -2.32404,-2.324035 l -18.59228,0 c -1.28286,0 -2.32403,1.041168 -2.32403,2.324035 0,1.282868 1.04117,2.324035 2.32403,2.324035 l 6.97211,0 0,32.536495 -6.97211,0 z"
     id="path5720"
     inkscape:connector-curvature="0"
     style="fill:#7a8288;fill-opacity:1" /><path
     d="m 229.01718,62.815443 -158.03437,0 c -2.56759,0 -4.64806,2.080476 -4.64806,4.648069 l 0,65.072978 c 0,2.5676 2.08047,4.64807 4.64806,4.64807 l 158.03437,0 c 2.5676,0 4.64807,-2.08047 4.64807,-4.64807 l 0,-65.072978 c 0,-2.567593 -2.08047,-4.648069 -4.64807,-4.648069 z m -4.64807,65.072977 -148.73822,0 0,-55.776838 148.73822,0 0,55.776838 z"
     id="path5722"
     inkscape:connector-curvature="0"
     style="fill:#7a8288;fill-opacity:1" /><text
     x="6"
     y="190"
     font-size="5px"
     font-weight="bold"
     id="text5724"
     style="font-weight:bold;font-size:5px;font-family:'Helvetica Neue', Helvetica, Arial-Unicode, Arial, Sans-serif;fill:#7a8288;fill-opacity:1;">Created by Arthur Shlain</text>
<text
     x="6"
     y="195"
     font-size="5px"
     font-weight="bold"
     id="text5726"
     style="font-weight:bold;font-size:5px;font-family:'Helvetica Neue', Helvetica, Arial-Unicode, Arial, Sans-serif;fill:#7a8288;fill-opacity:1;">from the Noun Project</text>
</svg>