<?xml version="1.0" encoding="UTF-8" standalone="no"?>
<svg
   xmlns:dc="http://purl.org/dc/elements/1.1/"
   xmlns:cc="http://creativecommons.org/ns#"
   xmlns:rdf="http://www.w3.org/1999/02/22-rdf-syntax-ns#"
   xmlns:svg="http://www.w3.org/2000/svg"
   xmlns="http://www.w3.org/2000/svg"
   xmlns:sodipodi="http://sodipodi.sourceforge.net/DTD/sodipodi-0.dtd"
   xmlns:inkscape="http://www.inkscape.org/namespaces/inkscape"
   viewBox="0 0 300.00001 199.99999"
   version="1.1"
   x="0px"
   y="0px"
   id="svg5267"
   inkscape:version="0.91 r13725"
   sodipodi:docname="noun_943295_cc.svg"
   width="300"
   height="200">
  <metadata
     id="metadata5281">
    <rdf:RDF>
      <cc:Work
         rdf:about="">
        <dc:format>image/svg+xml</dc:format>
        <dc:type
           rdf:resource="http://purl.org/dc/dcmitype/StillImage" />
        <dc:title></dc:title>
      </cc:Work>
    </rdf:RDF>
  </metadata>
  <defs
     id="defs5279" />
  <sodipodi:namedview
     pagecolor="#ffffff"
     bordercolor="#666666"
     borderopacity="1"
     objecttolerance="10"
     gridtolerance="10"
     guidetolerance="10"
     inkscape:pageopacity="0"
     inkscape:pageshadow="2"
     inkscape:window-width="1280"
     inkscape:window-height="751"
     id="namedview5277"
     showgrid="false"
     inkscape:zoom="1.4029886"
     inkscape:cx="133.44265"
     inkscape:cy="195.65376"
     inkscape:window-x="0"
     inkscape:window-y="1"
     inkscape:window-maximized="1"
     inkscape:current-layer="svg5267" />
  <g
     transform="matrix(0.42167573,0,0,0.42167573,-16.410463,-122.5586)"
     id="g5269">
    <path
       style="fill:#7a8288;fill-opacity:1"
       d="m 366.38675,357.99911 -75.003,160.442 35.843,0 -3.803,-5.664 0.146,-0.255 11.732,-1.054 -6.796,-9.789 0.07,-0.256 11.893,-1.053 -6.796,-9.79 0.146,-0.255 11.732,-0.97 -6.716,-9.709 0.147,-0.415 11.73,-0.97 -6.714,-9.709 0.145,-0.416 11.812,-0.969 -6.876,-9.71 0.145,-0.255 11.894,-1.13 -6.878,-9.709 0.147,-0.256 11.893,-1.13 -6.796,-9.71 0.07,-0.254 11.812,-1.131 -6.715,-9.709 0.146,-0.328 11.732,-0.889 -6.796,-9.709 0.255,-0.485 11.731,-0.97 -6.796,-9.628 -8.657,-44.257 z m 248.874,43.124 -69.419,118.936 c 14.084,3.022 26.742,9.611 36.976,18.932 l 47.411,-81.151 c 11.599,-19.719 4.875,-45.242 -14.968,-56.717 z m -444.106,18.933 c -7.953,2.486 -15.316,7.169 -21.198,13.754 -18.062,20.133 -16.445,50.792 3.398,68.854 0.952,0.702 1.798,1.483 2.751,2.022 10.274,8.203 23.012,11.687 35.357,10.195 5.219,-0.664 10.506,1.134 14.483,4.531 0,0.106 0.161,0.07 0.161,0.07 5.177,4.64 9.435,10.179 12.459,16.02 8.616,-6.835 18.758,-11.869 29.693,-14.645 -8.616,-13.255 -11.562,-29.458 -8.414,-44.661 0.415,-2.031 1.075,-4.195 1.779,-6.392 l 0,-0.415 c 1.243,-9.154 -1.845,-18.893 -9.385,-25.729 -1.657,-1.491 -3.72,-2.764 -5.502,-3.881 -10.149,-5.593 -23.127,-4.748 -32.282,2.748 3.023,1.077 6.051,2.859 8.495,5.18 10.812,9.568 11.596,26.125 1.86,36.812 l 0,0.182 c -3.562,3.811 -9.4,4.629 -13.915,2.185 -3.562,-1.908 -6.847,-4.143 -9.871,-6.878 -17.109,-15.493 -20.683,-40.649 -9.87,-59.953 z m 449.366,31.15 c 1.614,0.951 2.245,3.077 1.294,4.692 l -34.145,58.416 c -0.951,1.655 -2.996,2.166 -4.611,1.214 -1.658,-0.951 -2.166,-2.997 -1.214,-4.612 l 34.063,-58.416 c 0.951,-1.656 2.997,-2.246 4.611,-1.29 z m -353.005,74.111 c -40.265,0 -72.817,32.718 -72.817,72.818 0,40.266 32.552,72.818 72.817,72.818 l 262.144,0 c 40.224,0 72.898,-32.552 72.898,-72.818 -0.04,-40.14 -32.674,-72.818 -72.898,-72.818 l -262.144,0 z m 251.626,48.302 c 13.546,0 24.434,11.136 24.434,24.516 0.03,13.546 -10.888,24.434 -24.434,24.434 -13.546,0 -24.515,-10.888 -24.515,-24.434 0,-13.421 10.969,-24.516 24.515,-24.516 z m -250.331,16.103 c 4.64,0 8.334,3.731 8.334,8.413 -0.03,4.764 -3.694,8.495 -8.334,8.495 -4.639,0 -8.496,-3.69 -8.496,-8.495 0,-4.639 3.857,-8.413 8.496,-8.413 z m 44.742,1.537 144.098,0 0,13.674 -144.098,0 0,-13.674 z"
       id="path5271"
       inkscape:connector-curvature="0" />
  </g>
  <text
     x="2"
     y="192.73849"
     font-size="5px"
     font-weight="bold"
     id="text5273"
     style="font-weight:bold;font-size:5px;font-family:'Helvetica Neue', Helvetica, Arial-Unicode, Arial, Sans-serif;fill:#000000;fill-opacity:0.39215686">Created by Hopkins</text>
  <text
     x="2"
     y="197.73849"
     font-size="5px"
     font-weight="bold"
     id="text5275"
     style="font-weight:bold;font-size:5px;font-family:'Helvetica Neue', Helvetica, Arial-Unicode, Arial, Sans-serif;fill:#000000;fill-opacity:0.39215686">from the Noun Project</text>
</svg>
